<svg xmlns="http://www.w3.org/2000/svg" id="mainsvg" width="332.15166015625005" height="166.2375" viewBox="-10 -10 301.9560546875 151.125"><defs><marker id="arrow" viewBox="0 0 10 10" refX="10" refY="5" markerWidth="5" markerHeight="5" orient="auto-start-reverse" fill="black"><path d="M 0 0 L 10 5 L 0 10 z"/></marker><filter id="shadowOLD" x="-50%" y="-50%" width="250%" height="250%"><feDropShadow flood-color="black" flood-opacity="0.3" dx="1" dy="1" stdDeviation="2"> </feDropShadow></filter><filter id="shadow-path" filterUnits="userSpaceOnUse" x="-10" y="-10" width="301.9560546875px" height="151.125px"><feDropShadow flood-color="black" flood-opacity="0.1" dx="1" dy="1" stdDeviation="1"> </feDropShadow></filter><filter id="shadow" filterUnits="userSpaceOnUse" x="-10" y="-10" width="401.9560546875px" height="251.125px"><feDropShadow flood-color="black" flood-opacity="0.1" dx="1" dy="1" stdDeviation="1"> </feDropShadow></filter></defs><rect x="-10" y="-10" width="301.9560546875" height="151.125" fill="#fff"/><g transform="translate(0, 0)"><rect width="49.71875" height="34.375" stroke="black" fill="white" stroke-width="2" transform="translate(0, 0)" rx="3"/><text fill="black" font-size="16" font-weight="normal" transform="translate(8, 8)" alignment-baseline="middle" font-family="Arial"><tspan x="0" dy="16" font-family="Arial" font-size="16" font-weight="normal">User</tspan></text></g><g transform="translate(181.5263671875, 0)"><rect width="100.4296875" height="34.375" stroke="black" fill="white" stroke-width="2" transform="translate(0, 0)" rx="3"/><text fill="black" font-size="16" font-weight="normal" transform="translate(8, 8)" alignment-baseline="middle" font-family="Arial"><tspan x="0" dy="16" font-family="Arial" font-size="16" font-weight="normal">Home Page</tspan></text></g><path d="M 24.859375,74.75 L 231.7412109375 74.75" fill="none" stroke="black" stroke-dasharray="none" stroke-width="2" marker-end="url(#arrow)"/><path d="M 231.7412109375,111.125 L 24.859375 111.125" fill="none" stroke="black" stroke-dasharray="4,4" stroke-width="2" marker-end="url(#arrow)"/><path d="M 24.859375,34.375 L 24.859375 131.125" fill="none" stroke="black" stroke-dasharray="none" stroke-width="2"/><path d="M 231.7412109375,34.375 L 231.7412109375 131.125" fill="none" stroke="black" stroke-dasharray="none" stroke-width="2"/><g transform="translate(85.42138671875, 46.375)"><rect width="85.7578125" height="24.375" stroke="none" fill="white" stroke-width="0" transform="translate(0, 0)" rx="2"/><text fill="black" font-size="14" font-weight="normal" transform="translate(4, 4)" alignment-baseline="middle" font-family="Arial"><tspan x="0" dy="14" font-family="Arial" font-size="14" font-weight="normal">Navigates to</tspan></text></g><g transform="translate(48.859375, 82.75)"><rect width="158.8818359375" height="24.375" stroke="none" fill="white" stroke-width="0" transform="translate(0, 0)" rx="2"/><text fill="black" font-size="14" font-weight="normal" transform="translate(4, 4)" alignment-baseline="middle" font-family="Arial"><tspan x="0" dy="14" font-family="Arial" font-size="14" font-weight="normal">Shows list of bookmarks</tspan></text></g></svg>